<?xml version="1.0"?>
<svg xmlns="http://www.w3.org/2000/svg" viewBox="0 0 512 512" width="512" height="512">
<path d="M453.772,20h-352.4a26.029,26.029,0,0,0-26,26V78.021A49.211,49.211,0,0,0,32.228,126.79v35.458A49.2,49.2,0,0,0,81.376,211.4H235.5a37.192,37.192,0,0,1,37.149,37.149v27.933H220.821a6,6,0,0,0-5.934,6.889l1.559,10.4a27.375,27.375,0,0,0,21.567,22.9V440.441h-4.787a6,6,0,0,0-6,6V466a26.029,26.029,0,0,0,26,26h48.7a26.029,26.029,0,0,0,26-26V446.441a6,6,0,0,0-6-6h-4.787V316.662a27.374,27.374,0,0,0,21.567-22.9l1.559-10.4a6,6,0,0,0-5.933-6.889H284.653V248.545A49.2,49.2,0,0,0,235.5,199.4H81.376a37.191,37.191,0,0,1-37.148-37.148V126.79A37.2,37.2,0,0,1,75.376,90.133v31.149a26.029,26.029,0,0,0,26,26h352.4a26.029,26.029,0,0,0,26-26V46A26.029,26.029,0,0,0,453.772,20ZM315.922,466a14.015,14.015,0,0,1-14,14h-48.7a14.015,14.015,0,0,1-14-14V452.441h76.7Zm-65.909-25.559V317.249h55.122V440.441Zm77.348-151.963-.526,3.506a15.48,15.48,0,0,1-15.4,13.265H243.716a15.481,15.481,0,0,1-15.4-13.265l-.525-3.506Zm140.411-167.2a14.015,14.015,0,0,1-14,14h-352.4a14.016,14.016,0,0,1-14-14V46a14.016,14.016,0,0,1,14-14h352.4a14.015,14.015,0,0,1,14,14Z"/></svg>
