<?xml version="1.0"?>
<svg xmlns="http://www.w3.org/2000/svg" width="512" height="512" viewBox="0 0 128 128">
<g>
<path d="M91.751,56.25A1.751,1.751,0,0,0,93.5,54.5v-10a1.75,1.75,0,0,0-3.5,0v10A1.751,1.751,0,0,0,91.751,56.25Z"/><path d="M49,50.083H79a1.75,1.75,0,0,0,0-3.5H49a1.75,1.75,0,0,0,0,3.5Z"/><path d="M49,59.083H79a1.75,1.75,0,0,0,0-3.5H49a1.75,1.75,0,0,0,0,3.5Z"/><path d="M103.808,25.442H89.33V6.5a1.751,1.751,0,0,0-1.75-1.75h-6A1.751,1.751,0,0,0,79.83,6.5V25.442H48.17V6.5a1.751,1.751,0,0,0-1.75-1.75h-6A1.751,1.751,0,0,0,38.67,6.5V25.442H24.192a1.751,1.751,0,0,0-1.75,1.75v9a1.75,1.75,0,0,0,1.75,1.75H28.5V59.95a13.827,13.827,0,0,0,2.99,8.559l4.26,5.362V80.35A13.765,13.765,0,0,0,49.5,94.1h3.75v7.25A1.751,1.751,0,0,0,55,103.1h4.25v18.4A1.751,1.751,0,0,0,61,123.25h6a1.751,1.751,0,0,0,1.75-1.75V103.1H73a1.751,1.751,0,0,0,1.75-1.75V94.1H78.5A13.765,13.765,0,0,0,92.25,80.35V73.871l4.261-5.363A13.828,13.828,0,0,0,99.5,59.95V37.942h4.308a1.75,1.75,0,0,0,1.75-1.75v-9A1.751,1.751,0,0,0,103.808,25.442ZM83.33,8.25h2.5V25.442h-2.5Zm-41.16,0h2.5V25.442h-2.5Zm23.08,111.5h-2.5V103.1h2.5Zm6-20.15H56.75V94.1h14.5ZM96,59.95a10.31,10.31,0,0,1-2.23,6.381l-4.64,5.84a1.748,1.748,0,0,0-.38,1.089v7.09A10.261,10.261,0,0,1,78.5,90.6h-29A10.261,10.261,0,0,1,39.25,80.35V73.26a1.748,1.748,0,0,0-.38-1.089l-4.639-5.839A10.31,10.31,0,0,1,32,59.95V37.942H96Zm6.058-25.508H97.774l-.024,0-.024,0H30.274l-.024,0-.024,0H25.942v-5.5h76.116Z"/>
</g>
</svg>
